#!OML:ASF H:\Not Pregnant\Project 1\Capture day 1\Session 1\non-pregnant.ASF
:FULLY-SPECIFIED
:DEGREES
981
root 15.2615 1.79881 31.5533 -408.042 -111.894 -710.859
lowerback 21.232 1.51271 5.40819
upperback 8.87486 2.26713 1.43083
thorax -2.01047 0.864212 -2.02922
lowerneck 21.0671 -4.46138 -31.0754
upperneck 3.08072 -17.8186 42.7028
head 4.70459 -12.4044 24.3741
rclavicle 2.5345e-015 3.97569e-016
rhumerus -71.477 -3.01059 -69.6769
rradius 47.3165
rwrist -16.9912
rhand -46.1685 -53.4303
rfingers 7.12502
rthumb -18.9078 -82.5313
lclavicle 2.5345e-015 3.97569e-016
lhumerus -82.6501 14.6484 57.9016
lradius 57.2428
lwrist 86.4203
lhand -56.2259 -77.5818
lfingers 7.12502
lthumb -28.5521 -49.7419
rfemur -103.871 -22.5821 53.9356
rtibia 100.302
rfoot 30.1679 11.1543
rtoes -32.9018
lfemur -120.073 28.8738 -62.9264
ltibia 124.048
lfoot 0.613572 -3.27205
ltoes -45.7787
982
root 15.2764 1.79654 31.5576 -408.31 -111.983 -710.822
lowerback 21.2843 1.57593 5.48832
upperback 8.89627 2.3653 1.44095
thorax -2.00211 0.913863 -2.0858
lowerneck 21.07 -4.45608 -31.0145
upperneck 3.14898 -17.8337 42.7225
head 4.72634 -12.419 24.3797
rclavicle -2.89232e-014 6.75868e-015
rhumerus -71.2904 -2.73603 -70.4238
rradius 47.3433
rwrist -16.4637
rhand -46.2476 -54.5596
rfingers 7.12502
rthumb -18.9838 -83.6532
lclavicle -2.89232e-014 6.75868e-015
lhumerus -82.6588 14.2969 58.3166
lradius 57.7862
lwrist 86.804
lhand -56.2016 -78.5423
lfingers 7.12502
lthumb -28.5289 -50.6985
rfemur -103.287 -22.1919 53.4121
rtibia 100.15
rfoot 29.817 11.7665
rtoes -33.9331
lfemur -119.28 28.3533 -61.9118
ltibia 124.009
lfoot 0.409488 -1.96088
ltoes -43.0718
983
root 15.2921 1.79424 31.5619 -408.586 -112.079 -710.788
lowerback 21.3367 1.64461 5.54408
upperback 8.92375 2.46537 1.46453
thorax -1.98892 0.963473 -2.11463
lowerneck 21.0508 -4.4496 -30.9832
upperneck 3.20441 -17.8442 42.7497
head 4.75254 -12.4303 24.4002
rclavicle -7.95139e-016 -2.14687e-014
rhumerus -71.0919 -2.52548 -71.0003
rradius 47.2726
rwrist -15.9559
rhand -46.3434 -55.8445
rfingers 7.12502
rthumb -19.076 -84.929
lclavicle -7.95139e-016 -2.14687e-014
lhumerus -82.6766 14.0129 58.6688
lradius 58.3126
lwrist 87.0919
lhand -56.2147 -79.4378
lfingers 7.12502
lthumb -28.5414 -51.5961
rfemur -102.688 -21.7926 52.8908
rtibia 99.9946
rfoot 29.4792 12.3038
rtoes -34.9121
lfemur -118.509 27.8244 -60.9029
ltibia 123.977
lfoot -0.021938 -1.17437
ltoes -42.1941
984
root 15.3084 1.79148 31.5659 -408.834 -112.158 -710.791
lowerback 21.3915 1.72279 5.55596
upperback 8.95257 2.56984 1.49968
thorax -1.97833 1.0139 -2.10746
lowerneck 21.0113 -4.44899 -30.9713
upperneck 3.24618 -17.8528 42.7705
head 4.77972 -12.4369 24.4165
rclavicle 3.73715e-014 -1.15295e-014
rhumerus -70.9072 -2.38952 -71.3876
rradius 47.1285
rwrist -15.4982
rhand -46.4288 -57.1439
rfingers 7.12502
rthumb -19.1581 -86.2204
lclavicle 3.73715e-014 -1.15295e-014
lhumerus -82.6991 13.773 58.9782
lradius 58.8235
lwrist 87.3087
lhand -56.2647 -80.2801
lfingers 7.12502
lthumb -28.5892 -52.4465
rfemur -102.094 -21.3854 52.3576
rtibia 99.84
rfoot 29.1832 12.5179
rtoes -35.3909
lfemur -117.777 27.2783 -59.9168
ltibia 123.944
lfoot -0.459902 -0.604067
ltoes -41.6653
985
root 15.3253 1.7889 31.5702 -409.095 -112.245 -710.786
lowerback 21.4465 1.80867 5.58242
upperback 8.97788 2.68809 1.53903
thorax -1.96992 1.07156 -2.10713
lowerneck 20.9783 -4.45393 -30.9483
upperneck 3.26236 -17.8578 42.7927
head 4.79507 -12.4405 24.4276
rclavicle 5.74488e-014 6.04305e-014
rhumerus -70.7655 -2.34285 -71.6168
rradius 46.9302
rwrist -15.152
rhand -46.4956 -58.305
rfingers 7.12502
rthumb -19.2223 -87.375
lclavicle 5.74488e-014 6.04305e-014
lhumerus -82.7129 13.5397 59.2478
lradius 59.3155
lwrist 87.4735
lhand -56.3202 -81.0662
lfingers 7.12502
lthumb -28.6422 -53.2415
rfemur -101.498 -20.9794 51.8454
rtibia 99.6794
rfoot 28.9557 12.4881
rtoes -35.5217
lfemur -117.09 26.7231 -58.9268
ltibia 123.908
lfoot -0.89254 -0.284896
ltoes -41.6921
986
root 15.3443 1.78671 31.5758 -409.363 -112.334 -710.774
lowerback 21.4959 1.90134 5.61211
upperback 9.00132 2.81638 1.58634
thorax -1.96028 1.13433 -2.1022
lowerneck 20.9432 -4.46347 -30.9224
upperneck 3.25851 -17.8573 42.812
head 4.80127 -12.4387 24.4323
rclavicle 6.95746e-016 1.63003e-014
rhumerus -70.6882 -2.36504 -71.7127
rradius 46.7417
rwrist -14.9634
rhand -46.579 -59.1905
rfingers 7.12502
rthumb -19.3025 -88.2525
lclavicle 6.95746e-016 1.63003e-014
lhumerus -82.7159 13.3191 59.4947
lradius 59.7799
lwrist 87.6094
lhand -56.3427 -81.8097
lfingers 7.12502
lthumb -28.6637 -53.9886
rfemur -100.895 -20.5818 51.3538
rtibia 99.5019
rfoot 28.791 12.2513
rtoes -35.3406
lfemur -116.49 26.1615 -57.9071
ltibia 123.849
lfoot -1.29076 -0.119661
ltoes -40.1057
987
root 15.3636 1.78443 31.5815 -409.599 -112.401 -710.8
lowerback 21.5662 1.99808 5.63582
upperback 9.00739 2.95245 1.61972
thorax -1.97919 1.20087 -2.1117
lowerneck 20.9292 -4.47084 -30.8831
upperneck 3.24144 -17.8524 42.8346
head 4.79561 -12.4363 24.4372
rclavicle -9.23355e-014 1.70955e-014
rhumerus -70.7079 -2.44053 -71.7372
rradius 46.6024
rwrist -14.9692
rhand -46.7088 -59.7094
rfingers 7.12502
rthumb -19.4273 -88.7589
lclavicle -9.23355e-014 1.70955e-014
lhumerus -82.7201 13.08 59.7156
lradius 60.2163
lwrist 87.7278
lhand -56.3083 -82.5211
lfingers 7.12502
lthumb -28.6308 -54.6944
rfemur -100.307 -20.1934 50.8543
rtibia 99.3262
rfoot 28.656 11.8984
rtoes -34.977
lfemur -115.889 25.5786 -56.9169
ltibia 123.769
lfoot -1.74211 -0.129192
ltoes -38.3198
988
root 15.3834 1.78206 31.5872 -409.835 -112.456 -710.838
lowerback 21.6524 2.09685 5.66015
upperback 9.00427 3.0935 1.64754
thorax -2.01525 1.26973 -2.12955
lowerneck 20.9318 -4.47761 -30.8379
upperneck 3.20732 -17.844 42.8602
head 4.77951 -12.4333 24.4432
rclavicle -8.39865e-014 5.68524e-014
rhumerus -70.8173 -2.54998 -71.7246
rradius 46.5472
rwrist -15.1582
rhand -46.8875 -59.8939
rfingers 7.12502
rthumb -19.5992 -88.9259
lclavicle -8.39865e-014 5.68524e-014
lhumerus -82.7192 12.8342 59.9208
lradius 60.6203
lwrist 87.836
lhand -56.2089 -83.2109
lfingers 7.12502
lthumb -28.5358 -55.3683
rfemur -99.723 -19.8163 50.359
rtibia 99.1468
rfoot 28.5167 11.5282
rtoes -34.579
lfemur -115.287 24.981 -55.9372
ltibia 123.662
lfoot -2.21693 -0.350723
ltoes -36.6414
989
root 15.4039 1.77944 31.5928 -410.07 -112.498 -710.884
lowerback 21.7448 2.19537 5.66487
upperback 9.00215 3.23065 1.6782
thorax -2.0552 1.33589 -2.13297
lowerneck 20.9371 -4.4824 -30.792
upperneck 3.15498 -17.8235 42.8846
head 4.75101 -12.4228 24.4477
rclavicle 4.02539e-014 7.55382e-015
rhumerus -70.9695 -2.66011 -71.6943
rradius 46.5676
rwrist -15.4848
rhand -47.0842 -59.837
rfingers 7.12502
rthumb -19.7882 -88.8497
lclavicle 4.02539e-014 7.55382e-015
lhumerus -82.7112 12.6111 60.1222
lradius 60.9905
lwrist 87.9241
lhand -56.0565 -83.8725
lfingers 7.12502
lthumb -28.3903 -56.0055
rfemur -99.1444 -19.4523 49.8702
rtibia 98.9654
rfoot 28.3356 11.3042
rtoes -34.4381
lfemur -114.686 24.3699 -54.9621
ltibia 123.528
lfoot -2.68502 -0.8046
ltoes -35.4936
990
root 15.4253 1.77684 31.5989 -410.32 -112.538 -710.926
lowerback 21.8402 2.2908 5.66351
upperback 9.00985 3.36113 1.71355
thorax -2.08725 1.39825 -2.12665
lowerneck 20.9342 -4.48879 -30.7447
upperneck 3.08336 -17.7927 42.9084
head 4.71303 -12.4044 24.449
rclavicle 1.23246e-014 3.53837e-014
rhumerus -71.124 -2.76153 -71.6621
rradius 46.6337
rwrist -15.866
rhand -47.2686 -59.6093
rfingers 7.12502
rthumb -19.9655 -88.6036
lclavicle 1.23246e-014 3.53837e-014
lhumerus -82.6889 12.4191 60.3111
lradius 61.3318
lwrist 87.9869
lhand -55.9028 -84.4942
lfingers 7.12502
lthumb -28.2433 -56.6029
rfemur -98.5556 -19.0994 49.394
rtibia 98.7747
rfoot 28.1015 11.0794
rtoes -34.2666
lfemur -114.082 23.7534 -53.977
ltibia 123.363
lfoot -3.13422 -1.45293
ltoes -34.7089
991
root 15.4476 1.77434 31.6055 -410.589 -112.58 -710.961
lowerback 21.9267 2.3824 5.65033
upperback 9.03606 3.4809 1.75525
thorax -2.09679 1.45488 -2.10386
lowerneck 20.9195 -4.49408 -30.6874
upperneck 2.99163 -17.7424 42.9312
head 4.66012 -12.3725 24.4448
rclavicle 1.82882e-014 4.37326e-015
rhumerus -71.2392 -2.85462 -71.6255
rradius 46.7032
rwrist -16.1975
rhand -47.3939 -59.379
rfingers 7.12502
rthumb -20.086 -88.3607
lclavicle 1.82882e-014 4.37326e-015
lhumerus -82.6498 12.2625 60.4938
lradius 61.6489
lwrist 88.0325
lhand -55.7505 -85.067
lfingers 7.12502
lthumb -28.0978 -57.1516
rfemur -97.9537 -18.7586 48.9346
rtibia 98.5744
rfoot 27.826 11.0214
rtoes -34.4023
lfemur -113.487 23.1443 -52.967
ltibia 123.172
lfoot -3.55234 -2.29716
ltoes -34.3244
992
root 15.4701 1.77198 31.6123 -410.892 -112.638 -710.966
lowerback 21.998 2.46603 5.62966
upperback 9.08218 3.58507 1.81544
thorax -2.08017 1.50318 -2.05262
lowerneck 20.871 -4.49795 -30.6458
upperneck 2.89751 -17.677 42.9464
head 4.60672 -12.3277 24.4366
rclavicle 7.55382e-015 2.18663e-014
rhumerus -71.2718 -2.90913 -71.5768
rradius 46.7249
rwrist -16.4242
rhand -47.4271 -59.2299
rfingers 7.12502
rthumb -20.1178 -88.2083
lclavicle 7.55382e-015 2.18663e-014
lhumerus -82.6069 12.1545 60.685
lradius 61.9481
lwrist 88.0732
lhand -55.6115 -85.5952
lfingers 7.12502
lthumb -27.9649 -57.6582
rfemur -97.3441 -18.426 48.5111
rtibia 98.3674
rfoot 27.5219 10.9059
rtoes -34.3865
lfemur -112.908 22.5441 -51.9257
ltibia 122.966
lfoot -3.94313 -3.24968
ltoes -34.0005
993
root 15.4928 1.76992 31.6193 -411.205 -112.695 -710.973
lowerback 22.0661 2.53804 5.58322
upperback 9.13877 3.66693 1.8843
thorax -2.05494 1.53926 -1.9724
lowerneck 20.7997 -4.48971 -30.626
upperneck 2.82076 -17.5949 42.9548
head 4.55639 -12.2721 24.4327
rclavicle 3.18055e-015 -1.78906e-014
rhumerus -71.2139 -2.9057 -71.5296
rradius 46.654
rwrist -16.5192
rhand -47.3633 -59.2047
rfingers 7.12502
rthumb -20.0565 -88.1895
lclavicle 3.18055e-015 -1.78906e-014
lhumerus -82.5879 12.0873 60.8756
lradius 62.2369
lwrist 88.1128
lhand -55.4842 -86.0742
lfingers 7.12502
lthumb -27.8432 -58.1174
rfemur -96.7289 -18.1105 48.1023
rtibia 98.159
rfoot 27.1759 10.7745
rtoes -34.2892
lfemur -112.323 21.9553 -50.8715
ltibia 122.743
lfoot -4.3109 -4.25501
ltoes -33.8463
994
root 15.5155 1.76826 31.6265 -411.548 -112.766 -710.963
lowerback 22.1337 2.59906 5.53906
upperback 9.20212 3.73343 1.95792
thorax -2.02354 1.56732 -1.88481
lowerneck 20.7126 -4.47024 -30.6145
upperneck 2.76624 -17.5001 42.9596
head 4.50971 -12.2089 24.4323
rclavicle -1.65985e-014 -8.42847e-014
rhumerus -71.0757 -2.86423 -71.4877
rradius 46.489
rwrist -16.5002
rhand -47.2382 -59.2886
rfingers 7.12502
rthumb -19.9362 -88.286
lclavicle -1.65985e-014 -8.42847e-014
lhumerus -82.5898 12.0255 61.0828
lradius 62.5231
lwrist 88.1731
lhand -55.3638 -86.5415
lfingers 7.12502
lthumb -27.728 -58.5661
rfemur -96.1014 -17.8092 47.7217
rtibia 97.9465
rfoot 26.7892 10.6129
rtoes -34.0654
lfemur -111.735 21.3851 -49.7916
ltibia 122.511
lfoot -4.65869 -5.25933
ltoes -33.8347
995
root 15.5381 1.76686 31.6338 -411.9 -112.845 -710.954
lowerback 22.2177 2.64308 5.48787
upperback 9.2571 3.77774 2.03105
thorax -2.01169 1.58338 -1.78997
lowerneck 20.6091 -4.43128 -30.6313
upperneck 2.75864 -17.3947 42.9575
head 4.47701 -12.1408 24.4425
rclavicle 4.96962e-016 1.03368e-014
rhumerus -70.8698 -2.76341 -71.4609
rradius 46.23
rwrist -16.4129
rhand -47.0913 -59.4173
rfingers 7.12502
rthumb -19.795 -88.4293
lclavicle 4.96962e-016 1.03368e-014
lhumerus -82.6447 11.9667 61.3002
lradius 62.8177
lwrist 88.2542
lhand -55.2656 -87.0054
lfingers 7.12502
lthumb -27.6342 -59.0149
rfemur -95.4683 -17.5141 47.3572
rtibia 97.7335
rfoot 26.3466 10.4548
rtoes -33.7738
lfemur -111.143 20.834 -48.7035
ltibia 122.277
lfoot -5.00084 -6.20967
ltoes -34.1545
